<mxfile host="app.diagrams.net" modified="2023-06-28T02:54:05.300Z" agent="Mozilla/5.0 (X11; Linux x86_64) AppleWebKit/537.36 (KHTML, like Gecko) Chrome/114.0.0.0 Safari/537.36" etag="sPL9vi-oIRb9xUnHPVNf" version="21.4.0" type="device">
  <diagram name="PÃ¡gina-1" id="SFAKXEnO_Ir9iez6eGda">
    <mxGraphModel dx="1434" dy="811" grid="1" gridSize="10" guides="1" tooltips="1" connect="1" arrows="1" fold="1" page="1" pageScale="1" pageWidth="827" pageHeight="1169" math="0" shadow="0">
      <root>
        <mxCell id="0" />
        <mxCell id="1" parent="0" />
        <mxCell id="uAFOJvY5XCD9U9YOO98m-1" value="Medios_Prensa" style="whiteSpace=wrap;html=1;align=center;" parent="1" vertex="1">
          <mxGeometry x="570" y="640" width="90" height="30" as="geometry" />
        </mxCell>
        <mxCell id="uAFOJvY5XCD9U9YOO98m-2" value="Categorias" style="whiteSpace=wrap;html=1;align=center;" parent="1" vertex="1">
          <mxGeometry x="292.5" y="639.38" width="70" height="30" as="geometry" />
        </mxCell>
        <mxCell id="uAFOJvY5XCD9U9YOO98m-11" value="Fundadores" style="whiteSpace=wrap;html=1;align=center;" parent="1" vertex="1">
          <mxGeometry x="452.5" y="380" width="80" height="20" as="geometry" />
        </mxCell>
        <mxCell id="uAFOJvY5XCD9U9YOO98m-14" value="LoRealiza" style="shape=rhombus;perimeter=rhombusPerimeter;whiteSpace=wrap;html=1;align=center;" parent="1" vertex="1">
          <mxGeometry x="447.5" y="540" width="90" height="35" as="geometry" />
        </mxCell>
        <mxCell id="uAFOJvY5XCD9U9YOO98m-16" value="" style="endArrow=none;html=1;rounded=0;entryX=0.5;entryY=1;entryDx=0;entryDy=0;exitX=0.5;exitY=0;exitDx=0;exitDy=0;" parent="1" source="uAFOJvY5XCD9U9YOO98m-14" target="uAFOJvY5XCD9U9YOO98m-11" edge="1">
          <mxGeometry width="50" height="50" relative="1" as="geometry">
            <mxPoint x="367.5" y="540" as="sourcePoint" />
            <mxPoint x="417.5" y="490" as="targetPoint" />
          </mxGeometry>
        </mxCell>
        <mxCell id="uAFOJvY5XCD9U9YOO98m-17" value="" style="endArrow=none;html=1;rounded=0;entryX=1;entryY=1;entryDx=0;entryDy=0;exitX=0.25;exitY=0;exitDx=0;exitDy=0;" parent="1" source="uAFOJvY5XCD9U9YOO98m-1" target="uAFOJvY5XCD9U9YOO98m-14" edge="1">
          <mxGeometry width="50" height="50" relative="1" as="geometry">
            <mxPoint x="530" y="565" as="sourcePoint" />
            <mxPoint x="640" y="470" as="targetPoint" />
          </mxGeometry>
        </mxCell>
        <mxCell id="uAFOJvY5XCD9U9YOO98m-20" value="N" style="text;html=1;strokeColor=none;fillColor=none;align=center;verticalAlign=middle;whiteSpace=wrap;rounded=0;" parent="1" vertex="1">
          <mxGeometry x="492.5" y="410" width="20" height="10" as="geometry" />
        </mxCell>
        <mxCell id="uAFOJvY5XCD9U9YOO98m-21" value="N" style="text;html=1;strokeColor=none;fillColor=none;align=center;verticalAlign=middle;whiteSpace=wrap;rounded=0;" parent="1" vertex="1">
          <mxGeometry x="575" y="621.25" width="20" height="10" as="geometry" />
        </mxCell>
        <mxCell id="uAFOJvY5XCD9U9YOO98m-22" value="CuentaRedSocial" style="whiteSpace=wrap;html=1;align=center;" parent="1" vertex="1">
          <mxGeometry x="860" y="643.13" width="90" height="22.5" as="geometry" />
        </mxCell>
        <mxCell id="uAFOJvY5XCD9U9YOO98m-43" value="Tiene" style="shape=rhombus;perimeter=rhombusPerimeter;whiteSpace=wrap;html=1;align=center;" parent="1" vertex="1">
          <mxGeometry x="710" y="634.38" width="80" height="40" as="geometry" />
        </mxCell>
        <mxCell id="uAFOJvY5XCD9U9YOO98m-44" value="" style="endArrow=none;html=1;rounded=0;entryX=0;entryY=0.5;entryDx=0;entryDy=0;exitX=1;exitY=0.5;exitDx=0;exitDy=0;" parent="1" source="uAFOJvY5XCD9U9YOO98m-1" target="uAFOJvY5XCD9U9YOO98m-43" edge="1">
          <mxGeometry width="50" height="50" relative="1" as="geometry">
            <mxPoint x="680" y="830" as="sourcePoint" />
            <mxPoint x="730" y="780" as="targetPoint" />
          </mxGeometry>
        </mxCell>
        <mxCell id="uAFOJvY5XCD9U9YOO98m-45" value="" style="endArrow=none;html=1;rounded=0;entryX=1;entryY=0.5;entryDx=0;entryDy=0;exitX=0;exitY=0.5;exitDx=0;exitDy=0;" parent="1" source="uAFOJvY5XCD9U9YOO98m-22" target="uAFOJvY5XCD9U9YOO98m-43" edge="1">
          <mxGeometry width="50" height="50" relative="1" as="geometry">
            <mxPoint x="640" y="664.38" as="sourcePoint" />
            <mxPoint x="727" y="664.38" as="targetPoint" />
          </mxGeometry>
        </mxCell>
        <mxCell id="uAFOJvY5XCD9U9YOO98m-46" value="Se_divide" style="shape=rhombus;perimeter=rhombusPerimeter;whiteSpace=wrap;html=1;align=center;" parent="1" vertex="1">
          <mxGeometry x="442.5" y="634.38" width="90" height="40" as="geometry" />
        </mxCell>
        <mxCell id="uAFOJvY5XCD9U9YOO98m-47" value="" style="endArrow=none;html=1;rounded=0;exitX=1;exitY=0.5;exitDx=0;exitDy=0;entryX=0;entryY=0.5;entryDx=0;entryDy=0;" parent="1" source="uAFOJvY5XCD9U9YOO98m-2" target="uAFOJvY5XCD9U9YOO98m-46" edge="1">
          <mxGeometry width="50" height="50" relative="1" as="geometry">
            <mxPoint x="642.5" y="739.38" as="sourcePoint" />
            <mxPoint x="692.5" y="689.38" as="targetPoint" />
          </mxGeometry>
        </mxCell>
        <mxCell id="uAFOJvY5XCD9U9YOO98m-48" value="" style="endArrow=none;html=1;rounded=0;exitX=1;exitY=0.5;exitDx=0;exitDy=0;entryX=0;entryY=0.5;entryDx=0;entryDy=0;" parent="1" source="uAFOJvY5XCD9U9YOO98m-46" target="uAFOJvY5XCD9U9YOO98m-1" edge="1">
          <mxGeometry width="50" height="50" relative="1" as="geometry">
            <mxPoint x="330" y="665" as="sourcePoint" />
            <mxPoint x="400" y="665" as="targetPoint" />
          </mxGeometry>
        </mxCell>
        <mxCell id="uAFOJvY5XCD9U9YOO98m-49" value="1" style="text;html=1;strokeColor=none;fillColor=none;align=center;verticalAlign=middle;whiteSpace=wrap;rounded=0;" parent="1" vertex="1">
          <mxGeometry x="655" y="637.5" width="30" height="20" as="geometry" />
        </mxCell>
        <mxCell id="uAFOJvY5XCD9U9YOO98m-52" value="N" style="text;html=1;strokeColor=none;fillColor=none;align=center;verticalAlign=middle;whiteSpace=wrap;rounded=0;" parent="1" vertex="1">
          <mxGeometry x="840" y="640.63" width="20" height="12.5" as="geometry" />
        </mxCell>
        <mxCell id="uAFOJvY5XCD9U9YOO98m-59" value="1" style="text;html=1;strokeColor=none;fillColor=none;align=center;verticalAlign=middle;whiteSpace=wrap;rounded=0;" parent="1" vertex="1">
          <mxGeometry x="545" y="637.5" width="30" height="20" as="geometry" />
        </mxCell>
        <mxCell id="uAFOJvY5XCD9U9YOO98m-60" value="N" style="text;html=1;strokeColor=none;fillColor=none;align=center;verticalAlign=middle;whiteSpace=wrap;rounded=0;" parent="1" vertex="1">
          <mxGeometry x="362.5" y="638.13" width="20" height="15" as="geometry" />
        </mxCell>
        <mxCell id="uAFOJvY5XCD9U9YOO98m-62" value="Noticias" style="whiteSpace=wrap;html=1;align=center;" parent="1" vertex="1">
          <mxGeometry x="702.5" y="380" width="70" height="20" as="geometry" />
        </mxCell>
        <mxCell id="uAFOJvY5XCD9U9YOO98m-68" value="" style="endArrow=none;html=1;rounded=0;exitX=0.75;exitY=0;exitDx=0;exitDy=0;entryX=0;entryY=1;entryDx=0;entryDy=0;" parent="1" source="uAFOJvY5XCD9U9YOO98m-1" target="uAFOJvY5XCD9U9YOO98m-69" edge="1">
          <mxGeometry width="50" height="50" relative="1" as="geometry">
            <mxPoint x="820" y="595" as="sourcePoint" />
            <mxPoint x="780" y="500" as="targetPoint" />
          </mxGeometry>
        </mxCell>
        <mxCell id="uAFOJvY5XCD9U9YOO98m-69" value="Realiza" style="shape=rhombus;perimeter=rhombusPerimeter;whiteSpace=wrap;html=1;align=center;" parent="1" vertex="1">
          <mxGeometry x="692.5" y="540" width="90" height="35" as="geometry" />
        </mxCell>
        <mxCell id="uAFOJvY5XCD9U9YOO98m-70" value="" style="endArrow=none;html=1;rounded=0;entryX=0.5;entryY=1;entryDx=0;entryDy=0;exitX=0.5;exitY=0;exitDx=0;exitDy=0;" parent="1" source="uAFOJvY5XCD9U9YOO98m-69" target="uAFOJvY5XCD9U9YOO98m-62" edge="1">
          <mxGeometry width="50" height="50" relative="1" as="geometry">
            <mxPoint x="812.5" y="530" as="sourcePoint" />
            <mxPoint x="812.5" y="390" as="targetPoint" />
          </mxGeometry>
        </mxCell>
        <mxCell id="uAFOJvY5XCD9U9YOO98m-79" value="1" style="text;html=1;strokeColor=none;fillColor=none;align=center;verticalAlign=middle;whiteSpace=wrap;rounded=0;" parent="1" vertex="1">
          <mxGeometry x="635" y="621.25" width="20" height="10" as="geometry" />
        </mxCell>
        <mxCell id="uAFOJvY5XCD9U9YOO98m-80" value="N" style="text;html=1;strokeColor=none;fillColor=none;align=center;verticalAlign=middle;whiteSpace=wrap;rounded=0;" parent="1" vertex="1">
          <mxGeometry x="742.5" y="410" width="20" height="10" as="geometry" />
        </mxCell>
        <mxCell id="RX1MHQInADWJz_Gx_160-1" value="IDMedioPrensa" style="ellipse;whiteSpace=wrap;html=1;align=center;" vertex="1" parent="1">
          <mxGeometry x="562.5" y="670" width="105" height="25" as="geometry" />
        </mxCell>
        <mxCell id="RX1MHQInADWJz_Gx_160-2" value="NombrePrensa" style="ellipse;whiteSpace=wrap;html=1;align=center;" vertex="1" parent="1">
          <mxGeometry x="562.5" y="695" width="105" height="25" as="geometry" />
        </mxCell>
        <mxCell id="RX1MHQInADWJz_Gx_160-3" value="Fundacion" style="ellipse;whiteSpace=wrap;html=1;align=center;" vertex="1" parent="1">
          <mxGeometry x="562.5" y="720" width="105" height="25" as="geometry" />
        </mxCell>
        <mxCell id="RX1MHQInADWJz_Gx_160-5" value="SitioWeb" style="ellipse;whiteSpace=wrap;html=1;align=center;" vertex="1" parent="1">
          <mxGeometry x="562.5" y="745" width="105" height="25" as="geometry" />
        </mxCell>
        <mxCell id="RX1MHQInADWJz_Gx_160-6" value="CiudadPrensa" style="ellipse;whiteSpace=wrap;html=1;align=center;" vertex="1" parent="1">
          <mxGeometry x="562.5" y="770" width="105" height="25" as="geometry" />
        </mxCell>
        <mxCell id="RX1MHQInADWJz_Gx_160-7" value="PaisPrensa" style="ellipse;whiteSpace=wrap;html=1;align=center;" vertex="1" parent="1">
          <mxGeometry x="562.5" y="795" width="105" height="25" as="geometry" />
        </mxCell>
        <mxCell id="RX1MHQInADWJz_Gx_160-8" value="RegionPrensa" style="ellipse;whiteSpace=wrap;html=1;align=center;" vertex="1" parent="1">
          <mxGeometry x="562.5" y="820" width="105" height="25" as="geometry" />
        </mxCell>
        <mxCell id="RX1MHQInADWJz_Gx_160-9" value="ContinentePrensa" style="ellipse;whiteSpace=wrap;html=1;align=center;" vertex="1" parent="1">
          <mxGeometry x="562.5" y="845" width="105" height="25" as="geometry" />
        </mxCell>
        <mxCell id="RX1MHQInADWJz_Gx_160-11" value="IDCategoria" style="ellipse;whiteSpace=wrap;html=1;align=center;" vertex="1" parent="1">
          <mxGeometry x="182.5" y="591.88" width="105" height="25" as="geometry" />
        </mxCell>
        <mxCell id="RX1MHQInADWJz_Gx_160-13" value="NombreCategoria" style="ellipse;whiteSpace=wrap;html=1;align=center;" vertex="1" parent="1">
          <mxGeometry x="182.5" y="616.88" width="105" height="25" as="geometry" />
        </mxCell>
        <mxCell id="RX1MHQInADWJz_Gx_160-14" value="URLCategoria" style="ellipse;whiteSpace=wrap;html=1;align=center;" vertex="1" parent="1">
          <mxGeometry x="182.5" y="641.88" width="105" height="25" as="geometry" />
        </mxCell>
        <mxCell id="RX1MHQInADWJz_Gx_160-15" value="XPATH_Url" style="ellipse;whiteSpace=wrap;html=1;align=center;" vertex="1" parent="1">
          <mxGeometry x="182.5" y="666.88" width="105" height="25" as="geometry" />
        </mxCell>
        <mxCell id="RX1MHQInADWJz_Gx_160-16" value="IDMedioPrensaCa" style="ellipse;whiteSpace=wrap;html=1;align=center;" vertex="1" parent="1">
          <mxGeometry x="182.5" y="691.88" width="105" height="25" as="geometry" />
        </mxCell>
        <mxCell id="RX1MHQInADWJz_Gx_160-17" value="IDFundadores" style="ellipse;whiteSpace=wrap;html=1;align=center;" vertex="1" parent="1">
          <mxGeometry x="440" y="330" width="105" height="25" as="geometry" />
        </mxCell>
        <mxCell id="RX1MHQInADWJz_Gx_160-18" value="NombreFundador" style="ellipse;whiteSpace=wrap;html=1;align=center;" vertex="1" parent="1">
          <mxGeometry x="440" y="355" width="105" height="25" as="geometry" />
        </mxCell>
        <mxCell id="RX1MHQInADWJz_Gx_160-19" value="IDNoticia" style="ellipse;whiteSpace=wrap;html=1;align=center;" vertex="1" parent="1">
          <mxGeometry x="685" y="230" width="105" height="25" as="geometry" />
        </mxCell>
        <mxCell id="RX1MHQInADWJz_Gx_160-20" value="URL_Noticia" style="ellipse;whiteSpace=wrap;html=1;align=center;" vertex="1" parent="1">
          <mxGeometry x="685" y="255" width="105" height="25" as="geometry" />
        </mxCell>
        <mxCell id="RX1MHQInADWJz_Gx_160-21" value="XPATH_Fecha" style="ellipse;whiteSpace=wrap;html=1;align=center;" vertex="1" parent="1">
          <mxGeometry x="685" y="280" width="105" height="25" as="geometry" />
        </mxCell>
        <mxCell id="RX1MHQInADWJz_Gx_160-22" value="XPATH_Titulo" style="ellipse;whiteSpace=wrap;html=1;align=center;" vertex="1" parent="1">
          <mxGeometry x="685" y="305" width="105" height="25" as="geometry" />
        </mxCell>
        <mxCell id="RX1MHQInADWJz_Gx_160-23" value="XPATH_Contenido" style="ellipse;whiteSpace=wrap;html=1;align=center;" vertex="1" parent="1">
          <mxGeometry x="685" y="330" width="105" height="25" as="geometry" />
        </mxCell>
        <mxCell id="RX1MHQInADWJz_Gx_160-24" value="IDMedioPrensaN" style="ellipse;whiteSpace=wrap;html=1;align=center;" vertex="1" parent="1">
          <mxGeometry x="685" y="355" width="105" height="25" as="geometry" />
        </mxCell>
        <mxCell id="RX1MHQInADWJz_Gx_160-25" value="IDCuenta" style="ellipse;whiteSpace=wrap;html=1;align=center;" vertex="1" parent="1">
          <mxGeometry x="960" y="579.38" width="105" height="25" as="geometry" />
        </mxCell>
        <mxCell id="RX1MHQInADWJz_Gx_160-26" value="RedSocial" style="ellipse;whiteSpace=wrap;html=1;align=center;" vertex="1" parent="1">
          <mxGeometry x="960" y="604.38" width="105" height="25" as="geometry" />
        </mxCell>
        <mxCell id="RX1MHQInADWJz_Gx_160-27" value="NombreCuenta" style="ellipse;whiteSpace=wrap;html=1;align=center;" vertex="1" parent="1">
          <mxGeometry x="960" y="630.63" width="105" height="25" as="geometry" />
        </mxCell>
        <mxCell id="RX1MHQInADWJz_Gx_160-28" value="NumeroSeguidores" style="ellipse;whiteSpace=wrap;html=1;align=center;" vertex="1" parent="1">
          <mxGeometry x="960" y="655.63" width="105" height="25" as="geometry" />
        </mxCell>
        <mxCell id="RX1MHQInADWJz_Gx_160-29" value="FechaActualizo" style="ellipse;whiteSpace=wrap;html=1;align=center;" vertex="1" parent="1">
          <mxGeometry x="960" y="680.63" width="105" height="25" as="geometry" />
        </mxCell>
        <mxCell id="RX1MHQInADWJz_Gx_160-30" value="IDMedioPrensaC" style="ellipse;whiteSpace=wrap;html=1;align=center;" vertex="1" parent="1">
          <mxGeometry x="960" y="705.63" width="105" height="25" as="geometry" />
        </mxCell>
      </root>
    </mxGraphModel>
  </diagram>
</mxfile>
